<?xml version="1.0" standalone="yes"?>
<svg xmlns="http://www.w3.org/2000/svg" width="309" height="307">
<path style="fill:#ffffff; stroke:none;" d="M0 0L0 307L309 307L309 0L0 0z"/>
<path style="fill:#a1a1a1; stroke:none;" d="M141 5L141 6L144 6L141 5z"/>
<path style="fill:#707070; stroke:none;" d="M144 5L144 6L149 6L144 5z"/>
<path style="fill:#030201; stroke:none;" d="M149 5.42438C108.458 10.7475 73.3816 23.7655 45.1698 55C33.2853 68.1577 24.1206 83.5671 17.6011 100C-23.5423 203.705 64.5126 316.971 175 303.715C248.391 294.909 305.177 231.782 306.985 158C308.974 76.8599 234.05 -5.74265 149 5.42438z"/>
<path style="fill:#707070; stroke:none;" d="M165 5L165 6L170 6L165 5z"/>
<path style="fill:#a1a1a1; stroke:none;" d="M170 5L170 6L173 6L170 5M134.667 6.33334L135.333 6.66666L134.667 6.33334z"/>
<path style="fill:#707070; stroke:none;" d="M136.667 6.33334L137.333 6.66666L136.667 6.33334M176.667 6.33334L177.333 6.66666L176.667 6.33334z"/>
<path style="fill:#a1a1a1; stroke:none;" d="M178.667 6.33334L179.333 6.66666L178.667 6.33334M128.667 7.33334L129.333 7.66666L128.667 7.33334z"/>
<path style="fill:#707070; stroke:none;" d="M130 7L131 8L130 7M183 7L184 8L183 7z"/>
<path style="fill:#a1a1a1; stroke:none;" d="M184.667 7.33334L185.333 7.66666L184.667 7.33334M123.667 8.33334L124.333 8.66666L123.667 8.33334z"/>
<path style="fill:#707070; stroke:none;" d="M125 8L126 9L125 8M188 8L189 9L188 8z"/>
<path style="fill:#a1a1a1; stroke:none;" d="M189.667 8.33334L190.333 8.66666L189.667 8.33334M119 9L120 10L119 9z"/>
<path style="fill:#707070; stroke:none;" d="M120.667 9.33334L121.333 9.66666L120.667 9.33334M192.667 9.33334L193.333 9.66666L192.667 9.33334z"/>
<path style="fill:#a1a1a1; stroke:none;" d="M194 9L195 10L194 9M116 10L117 11L116 10z"/>
<path style="fill:#707070; stroke:none;" d="M117 10L118 11L117 10M196 10L197 11L196 10z"/>
<path style="fill:#a1a1a1; stroke:none;" d="M197 10L198 11L197 10M112 11L113 12L112 11z"/>
<path style="fill:#707070; stroke:none;" d="M113 11L114 12L113 11M200 11L201 12L200 11z"/>
<path style="fill:#a1a1a1; stroke:none;" d="M201 11L202 12L201 11M109 12L110 13L109 12z"/>
<path style="fill:#707070; stroke:none;" d="M110 12L111 13L110 12M203 12L204 13L203 12z"/>
<path style="fill:#a1a1a1; stroke:none;" d="M204 12L205 13L204 12M106 13L107 14L106 13z"/>
<path style="fill:#707070; stroke:none;" d="M107 13L108 14L107 13M206 13L207 14L206 13z"/>
<path style="fill:#a1a1a1; stroke:none;" d="M207 13L208 14L207 13z"/>
<path style="fill:#707070; stroke:none;" d="M104 14L105 15L104 14M209 14L210 15L209 14z"/>
<path style="fill:#a1a1a1; stroke:none;" d="M101 15L102 16L101 15z"/>
<path style="fill:#707070; stroke:none;" d="M102 15L103 16L102 15z"/>
<path style="fill:#b50b01; stroke:none;" d="M31 217L32 217C25.6207 166.523 42.4445 119.013 80 84.0895C89.7407 75.0315 101.132 67.2236 113 61.2477C118.934 58.2594 128.595 56.4271 133.49 52.1566C136.587 49.4544 137.408 43.7415 138.667 40C141.545 31.4505 146.522 23.6027 149 15C129.392 17.478 110.781 21.1435 93 30.2592C44.6356 55.0542 13.3555 108.473 17.0895 163C18.4036 182.19 24.1096 199.24 31 217M166 15L166 16C213.219 32.0783 247.92 78.1327 257.551 126C259.901 137.68 261.728 150.068 260.91 162C260.422 169.138 256.321 179.09 257.889 186C258.92 190.543 263.81 194.577 266.728 198C272.151 204.36 276.262 212.009 282 218C314.371 161.118 293.458 82.9906 243 44.2354C219.328 26.0533 194.523 20.295 166 15z"/>
<path style="fill:#707070; stroke:none;" d="M211 15L212 16L211 15z"/>
<path style="fill:#a1a1a1; stroke:none;" d="M212 15L213 16L212 15z"/>
<path style="fill:#707070; stroke:none;" d="M99 16L100 17L99 16M214 16L215 17L214 16z"/>
<path style="fill:#a1a1a1; stroke:none;" d="M96 17L97 18L96 17z"/>
<path style="fill:#707070; stroke:none;" d="M97 17L98 18L97 17M216 17L217 18L216 17z"/>
<path style="fill:#a1a1a1; stroke:none;" d="M217 17L218 18L217 17M94 18L95 19L94 18M219 18L220 19L219 18M92 19L93 20L92 19M221 19L222 20L221 19M90 20L91 21L90 20M223 20L224 21L223 20M88 21L89 22L88 21M225 21L226 22L225 21M86 22L87 23L86 22M227 22L228 23L227 22M84 23L85 24L84 23M229 23L230 24L229 23M82 24L83 25L82 24z"/>
<path style="fill:#707070; stroke:none;" d="M83 24L84 25L83 24M230 24L231 25L230 24z"/>
<path style="fill:#a1a1a1; stroke:none;" d="M231 24L232 25L231 24z"/>
<path style="fill:#707070; stroke:none;" d="M81 25L82 26L81 25M232 25L233 26L232 25z"/>
<path style="fill:#a1a1a1; stroke:none;" d="M79 26L80 27L79 26M234 26L235 27L234 26M77 27L78 28L77 27z"/>
<path style="fill:#707070; stroke:none;" d="M78 27L79 28L78 27M235 27L236 28L235 27z"/>
<path style="fill:#a1a1a1; stroke:none;" d="M236 27L237 28L236 27z"/>
<path style="fill:#707070; stroke:none;" d="M76 28L77 29L76 28M237 28L238 29L237 28z"/>
<path style="fill:#a1a1a1; stroke:none;" d="M74 29L75 30L74 29M239 29L240 30L239 29z"/>
<path style="fill:#707070; stroke:none;" d="M73 30L74 31L73 30M240 30L241 31L240 30z"/>
<path style="fill:#a1a1a1; stroke:none;" d="M71 31L72 32L71 31M242 31L243 32L242 31z"/>
<path style="fill:#707070; stroke:none;" d="M70 32L71 33L70 32M243 32L244 33L243 32M69 33L70 34L69 33M244 33L245 34L244 33z"/>
<path style="fill:#a1a1a1; stroke:none;" d="M67 34L68 35L67 34M246 34L247 35L246 34z"/>
<path style="fill:#707070; stroke:none;" d="M66 35L67 36L66 35M247 35L248 36L247 35z"/>
<path style="fill:#a1a1a1; stroke:none;" d="M63 37L64 38L63 37M250 37L251 38L250 37z"/>
<path style="fill:#707070; stroke:none;" d="M62 38L63 39L62 38M251 38L252 39L251 38M61 39L62 40L61 39M252 39L253 40L252 39M60 40L61 41L60 40M253 40L254 41L253 40z"/>
<path style="fill:#a1a1a1; stroke:none;" d="M58 41L59 42L58 41M255 41L256 42L255 41M57 42L58 43L57 42M256 42L257 43L256 42M56 43L57 44L56 43M257 43L258 44L257 43M55 44L56 45L55 44M258 44L259 45L258 44z"/>
<path style="fill:#707070; stroke:none;" d="M54 45L55 46L54 45M259 45L260 46L259 45M53 46L54 47L53 46M260 46L261 47L260 46M52 47L53 48L52 47M261 47L262 48L261 47M51 48L52 49L51 48M262 48L263 49L262 48M50 49L51 50L50 49M263 49L264 50L263 49M49 50L50 51L49 50M264 50L265 51L264 50M48 51L49 52L48 51M265 51L266 52L265 51M47 52L48 53L47 52M266 52L267 53L266 52z"/>
<path style="fill:#a1a1a1; stroke:none;" d="M46 53L47 54L46 53M267 53L268 54L267 53M45 54L46 55L45 54M268 54L269 55L268 54M44 55L45 56L44 55M269 55L270 56L269 55M43 56L44 57L43 56M270 56L271 57L270 56z"/>
<path style="fill:#707070; stroke:none;" d="M42 58L43 59L42 58M271 58L272 59L271 58M41 59L42 60L41 59M272 59L273 60L272 59M40 60L41 61L40 60M273 60L274 61L273 60z"/>
<path style="fill:#a1a1a1; stroke:none;" d="M39 61L40 62L39 61z"/>
<path style="fill:#b50b01; stroke:none;" d="M71 171L100 145.439L115.987 131.826L120.449 108L131 61C85.4314 71.542 56.0376 126.815 71 171z"/>
<path style="fill:#a1a1a1; stroke:none;" d="M274 61L275 62L274 61z"/>
<path style="fill:#707070; stroke:none;" d="M37 64L38 65L37 64M276 64L277 65L276 64z"/>
<path style="fill:#a1a1a1; stroke:none;" d="M36 65L37 66L36 65M277 65L278 66L277 65z"/>
<path style="fill:#707070; stroke:none;" d="M35 67L36 68L35 67M278 67L279 68L278 67M34 68L35 69L34 68M279 68L280 69L279 68z"/>
<path style="fill:#a1a1a1; stroke:none;" d="M33 69L34 70L33 69M280 69L281 70L280 69z"/>
<path style="fill:#707070; stroke:none;" d="M32 71L33 72L32 71M281 71L282 72L281 71z"/>
<path style="fill:#a1a1a1; stroke:none;" d="M31 72L32 73L31 72z"/>
<path style="fill:#b50b01; stroke:none;" d="M186 72L193.916 110L198.013 131.711L216 147.167L252 180C253.06 166.675 255.115 154.426 252.539 141C245.892 106.345 218.332 82.342 186 72z"/>
<path style="fill:#a1a1a1; stroke:none;" d="M282 72L283 73L282 72z"/>
<path style="fill:#707070; stroke:none;" d="M30 74L31 75L30 74M283 74L284 75L283 74z"/>
<path style="fill:#a1a1a1; stroke:none;" d="M29 75L30 76L29 75M284 75L285 76L284 75z"/>
<path style="fill:#707070; stroke:none;" d="M29 76L30 77L29 76M284 76L285 77L284 76z"/>
<path style="fill:#a1a1a1; stroke:none;" d="M28 77L29 78L28 77M285 77L286 78L285 77z"/>
<path style="fill:#707070; stroke:none;" d="M27 79L28 80L27 79M286 79L287 80L286 79z"/>
<path style="fill:#a1a1a1; stroke:none;" d="M26 80L27 81L26 80M287 80L288 81L287 80z"/>
<path style="fill:#707070; stroke:none;" d="M26 81L27 82L26 81M287 81L288 82L287 81z"/>
<path style="fill:#a1a1a1; stroke:none;" d="M25 82L26 83L25 82M288 82L289 83L288 82M24 84L25 85L24 84M289 84L290 85L289 84M23 86L24 87L23 86M290 86L291 87L290 86M22 88L23 89L22 88M291 88L292 89L291 88M21 90L22 91L21 90M292 90L293 91L292 90M20 92L21 93L20 92M293 92L294 93L293 92M19 94L20 95L19 94M294 94L295 95L294 94z"/>
<path style="fill:#707070; stroke:none;" d="M19 95L20 96L19 95M294 95L295 96L294 95M18 97L19 98L18 97M295 97L296 98L295 97z"/>
<path style="fill:#a1a1a1; stroke:none;" d="M17 99L18 100L17 99M296 99L297 100L296 99z"/>
<path style="fill:#707070; stroke:none;" d="M17 100L18 101L17 100M296 100L297 101L296 100M16 102L17 103L16 102M297 102L298 103L297 102z"/>
<path style="fill:#a1a1a1; stroke:none;" d="M15 104L16 105L15 104M298 104L299 105L298 104z"/>
<path style="fill:#707070; stroke:none;" d="M15 105L16 106L15 105M298 105L299 106L298 105z"/>
<path style="fill:#a1a1a1; stroke:none;" d="M14 107L15 108L14 107M299 107L300 108L299 107z"/>
<path style="fill:#707070; stroke:none;" d="M14 108L15 109L14 108M299 108L300 109L299 108z"/>
<path style="fill:#a1a1a1; stroke:none;" d="M13 110L14 111L13 110M300 110L301 111L300 110z"/>
<path style="fill:#707070; stroke:none;" d="M13 111L14 112L13 111M300 111L301 112L300 111z"/>
<path style="fill:#a1a1a1; stroke:none;" d="M12 114L13 115L12 114M301 114L302 115L301 114z"/>
<path style="fill:#707070; stroke:none;" d="M12 115L13 116L12 115M301 115L302 116L301 115z"/>
<path style="fill:#a1a1a1; stroke:none;" d="M11 117L12 118L11 117M302 117L303 118L302 117z"/>
<path style="fill:#707070; stroke:none;" d="M11.3333 118.667L11.6667 119.333L11.3333 118.667M302.333 118.667L302.667 119.333L302.333 118.667z"/>
<path style="fill:#a1a1a1; stroke:none;" d="M10.3333 121.667L10.6667 122.333L10.3333 121.667M303.333 121.667L303.667 122.333L303.333 121.667z"/>
<path style="fill:#707070; stroke:none;" d="M10 123L11 124L10 123M303 123L304 124L303 123z"/>
<path style="fill:#a1a1a1; stroke:none;" d="M9.33333 126.667L9.66667 127.333L9.33333 126.667M304.333 126.667L304.667 127.333L304.333 126.667z"/>
<path style="fill:#b50b01; stroke:none;" d="M152 127.468C116.355 134.19 126.589 189.211 162 182.532C197.645 175.81 187.411 120.789 152 127.468z"/>
<path style="fill:#707070; stroke:none;" d="M9 128L10 129L9 128M304 128L305 129L304 128z"/>
<path style="fill:#a1a1a1; stroke:none;" d="M8.33333 132.667L8.66667 133.333L8.33333 132.667M305.333 132.667L305.667 133.333L305.333 132.667z"/>
<path style="fill:#707070; stroke:none;" d="M8.33333 134.667L8.66667 135.333L8.33333 134.667M305.333 134.667L305.667 135.333L305.333 134.667z"/>
<path style="fill:#a1a1a1; stroke:none;" d="M7 139L7 142L8 142L7 139M306 139L306 142L307 142L306 139z"/>
<path style="fill:#707070; stroke:none;" d="M7 142L7 147L8 147L7 142M306 142L306 147L307 147L306 142M7 163L7 168L8 168L7 163M306 163L306 168L307 168L306 163z"/>
<path style="fill:#a1a1a1; stroke:none;" d="M7 168L7 171L8 171L7 168M306 168L306 171L307 171L306 168z"/>
<path style="fill:#707070; stroke:none;" d="M8.33333 174.667L8.66667 175.333L8.33333 174.667M305.333 174.667L305.667 175.333L305.333 174.667z"/>
<path style="fill:#a1a1a1; stroke:none;" d="M8.33333 176.667L8.66667 177.333L8.33333 176.667M305.333 176.667L305.667 177.333L305.333 176.667z"/>
<path style="fill:#707070; stroke:none;" d="M9 181L10 182L9 181M304 181L305 182L304 181z"/>
<path style="fill:#a1a1a1; stroke:none;" d="M9.33333 182.667L9.66667 183.333L9.33333 182.667M304.333 182.667L304.667 183.333L304.333 182.667z"/>
<path style="fill:#707070; stroke:none;" d="M10 186L11 187L10 186M303 186L304 187L303 186z"/>
<path style="fill:#a1a1a1; stroke:none;" d="M10.3333 187.667L10.6667 188.333L10.3333 187.667M303.333 187.667L303.667 188.333L303.333 187.667z"/>
<path style="fill:#707070; stroke:none;" d="M11.3333 190.667L11.6667 191.333L11.3333 190.667M302.333 190.667L302.667 191.333L302.333 190.667z"/>
<path style="fill:#a1a1a1; stroke:none;" d="M11 192L12 193L11 192M302 192L303 193L302 192z"/>
<path style="fill:#707070; stroke:none;" d="M12 194L13 195L12 194M301 194L302 195L301 194z"/>
<path style="fill:#a1a1a1; stroke:none;" d="M12 195L13 196L12 195M301 195L302 196L301 195z"/>
<path style="fill:#707070; stroke:none;" d="M13 198L14 199L13 198M300 198L301 199L300 198z"/>
<path style="fill:#a1a1a1; stroke:none;" d="M13 199L14 200L13 199M300 199L301 200L300 199z"/>
<path style="fill:#707070; stroke:none;" d="M14 201L15 202L14 201M299 201L300 202L299 201z"/>
<path style="fill:#a1a1a1; stroke:none;" d="M14 202L15 203L14 202z"/>
<path style="fill:#b50b01; stroke:none;" d="M88 225C98.3489 232.857 107.555 239.965 120 244.305C149.406 254.56 194.791 248.044 214 221L177 209.308L158 202.306L137 209.308L88 225z"/>
<path style="fill:#a1a1a1; stroke:none;" d="M299 202L300 203L299 202z"/>
<path style="fill:#707070; stroke:none;" d="M15 204L16 205L15 204M298 204L299 205L298 204z"/>
<path style="fill:#a1a1a1; stroke:none;" d="M15 205L16 206L15 205M298 205L299 206L298 205z"/>
<path style="fill:#707070; stroke:none;" d="M16 207L17 208L16 207M297 207L298 208L297 207M17 209L18 210L17 209M296 209L297 210L296 209z"/>
<path style="fill:#a1a1a1; stroke:none;" d="M17 210L18 211L17 210M296 210L297 211L296 210z"/>
<path style="fill:#707070; stroke:none;" d="M18 212L19 213L18 212M295 212L296 213L295 212M19 214L20 215L19 214M294 214L295 215L294 214z"/>
<path style="fill:#a1a1a1; stroke:none;" d="M19 215L20 216L19 215M294 215L295 216L294 215M20 217L21 218L20 217M293 217L294 218L293 217M21 219L22 220L21 219M292 219L293 220L292 219M22 221L23 222L22 221M291 221L292 222L291 221M23 223L24 224L23 223M290 223L291 224L290 223M24 225L25 226L24 225M289 225L290 226L289 225z"/>
<path style="fill:#b50b01; stroke:none;" d="M40 231C47.5904 249.045 67.6781 264.753 84 274.6C143.716 310.624 236.847 297.859 273 233C241.336 251.037 212.027 267.515 174 264.91C150.173 263.279 127.061 256.407 106 245.218C97.4472 240.675 88.0647 228.773 79 226.735C68.1417 224.292 51.6442 231 40 231z"/>
<path style="fill:#a1a1a1; stroke:none;" d="M25 227L26 228L25 227M288 227L289 228L288 227z"/>
<path style="fill:#707070; stroke:none;" d="M26 228L27 229L26 228M287 228L288 229L287 228z"/>
<path style="fill:#a1a1a1; stroke:none;" d="M26 229L27 230L26 229M287 229L288 230L287 229z"/>
<path style="fill:#707070; stroke:none;" d="M27 230L28 231L27 230M286 230L287 231L286 230z"/>
<path style="fill:#a1a1a1; stroke:none;" d="M28 232L29 233L28 232M285 232L286 233L285 232z"/>
<path style="fill:#707070; stroke:none;" d="M29 233L30 234L29 233M284 233L285 234L284 233z"/>
<path style="fill:#a1a1a1; stroke:none;" d="M29 234L30 235L29 234M284 234L285 235L284 234z"/>
<path style="fill:#707070; stroke:none;" d="M30 235L31 236L30 235M283 235L284 236L283 235z"/>
<path style="fill:#a1a1a1; stroke:none;" d="M31 237L32 238L31 237M282 237L283 238L282 237z"/>
<path style="fill:#707070; stroke:none;" d="M32 238L33 239L32 238M281 238L282 239L281 238z"/>
<path style="fill:#a1a1a1; stroke:none;" d="M33 240L34 241L33 240M280 240L281 241L280 240z"/>
<path style="fill:#707070; stroke:none;" d="M34 241L35 242L34 241M279 241L280 242L279 241M35 242L36 243L35 242M278 242L279 243L278 242z"/>
<path style="fill:#a1a1a1; stroke:none;" d="M36 244L37 245L36 244M277 244L278 245L277 244z"/>
<path style="fill:#707070; stroke:none;" d="M37 245L38 246L37 245M276 245L277 246L276 245z"/>
<path style="fill:#a1a1a1; stroke:none;" d="M39 248L40 249L39 248M274 248L275 249L274 248z"/>
<path style="fill:#707070; stroke:none;" d="M40 249L41 250L40 249M273 249L274 250L273 249M41 250L42 251L41 250M272 250L273 251L272 250M42 251L43 252L42 251M271 251L272 252L271 251z"/>
<path style="fill:#a1a1a1; stroke:none;" d="M43 253L44 254L43 253M270 253L271 254L270 253M44 254L45 255L44 254M269 254L270 255L269 254M45 255L46 256L45 255M268 255L269 256L268 255M46 256L47 257L46 256M267 256L268 257L267 256z"/>
<path style="fill:#707070; stroke:none;" d="M47 257L48 258L47 257M266 257L267 258L266 257M48 258L49 259L48 258M265 258L266 259L265 258M49 259L50 260L49 259M264 259L265 260L264 259M50 260L51 261L50 260M263 260L264 261L263 260M51 261L52 262L51 261M262 261L263 262L262 261M52 262L53 263L52 262M261 262L262 263L261 262M53 263L54 264L53 263M260 263L261 264L260 263M54 264L55 265L54 264M259 264L260 265L259 264z"/>
<path style="fill:#a1a1a1; stroke:none;" d="M55 265L56 266L55 265M258 265L259 266L258 265M56 266L57 267L56 266M257 266L258 267L257 266M57 267L58 268L57 267M256 267L257 268L256 267M58 268L59 269L58 268M255 268L256 269L255 268z"/>
<path style="fill:#707070; stroke:none;" d="M60 269L61 270L60 269M253 269L254 270L253 269M61 270L62 271L61 270M252 270L253 271L252 270M62 271L63 272L62 271M251 271L252 272L251 271z"/>
<path style="fill:#a1a1a1; stroke:none;" d="M63 272L64 273L63 272M250 272L251 273L250 272z"/>
<path style="fill:#707070; stroke:none;" d="M66 274L67 275L66 274M247 274L248 275L247 274z"/>
<path style="fill:#a1a1a1; stroke:none;" d="M67 275L68 276L67 275M246 275L247 276L246 275z"/>
<path style="fill:#707070; stroke:none;" d="M69 276L70 277L69 276M244 276L245 277L244 276M70 277L71 278L70 277M243 277L244 278L243 277z"/>
<path style="fill:#a1a1a1; stroke:none;" d="M71 278L72 279L71 278M242 278L243 279L242 278z"/>
<path style="fill:#707070; stroke:none;" d="M73 279L74 280L73 279M240 279L241 280L240 279z"/>
<path style="fill:#a1a1a1; stroke:none;" d="M74 280L75 281L74 280M239 280L240 281L239 280z"/>
<path style="fill:#707070; stroke:none;" d="M76 281L77 282L76 281M237 281L238 282L237 281z"/>
<path style="fill:#a1a1a1; stroke:none;" d="M77 282L78 283L77 282z"/>
<path style="fill:#707070; stroke:none;" d="M78 282L79 283L78 282M235 282L236 283L235 282z"/>
<path style="fill:#a1a1a1; stroke:none;" d="M236 282L237 283L236 282M79 283L80 284L79 283M234 283L235 284L234 283z"/>
<path style="fill:#707070; stroke:none;" d="M81 284L82 285L81 284M232 284L233 285L232 284z"/>
<path style="fill:#a1a1a1; stroke:none;" d="M82 285L83 286L82 285z"/>
<path style="fill:#707070; stroke:none;" d="M83 285L84 286L83 285M230 285L231 286L230 285z"/>
<path style="fill:#a1a1a1; stroke:none;" d="M231 285L232 286L231 285M84 286L85 287L84 286M229 286L230 287L229 286M86 287L87 288L86 287M227 287L228 288L227 287M88 288L89 289L88 288M225 288L226 289L225 288M90 289L91 290L90 289M223 289L224 290L223 289M92 290L93 291L92 290M221 290L222 291L221 290M94 291L95 292L94 291M219 291L220 292L219 291M96 292L97 293L96 292z"/>
<path style="fill:#707070; stroke:none;" d="M97 292L98 293L97 292M216 292L217 293L216 292z"/>
<path style="fill:#a1a1a1; stroke:none;" d="M217 292L218 293L217 292z"/>
<path style="fill:#707070; stroke:none;" d="M99 293L100 294L99 293M214 293L215 294L214 293z"/>
<path style="fill:#a1a1a1; stroke:none;" d="M101 294L102 295L101 294z"/>
<path style="fill:#707070; stroke:none;" d="M102 294L103 295L102 294M211 294L212 295L211 294z"/>
<path style="fill:#a1a1a1; stroke:none;" d="M212 294L213 295L212 294z"/>
<path style="fill:#707070; stroke:none;" d="M104 295L105 296L104 295M209 295L210 296L209 295z"/>
<path style="fill:#a1a1a1; stroke:none;" d="M106 296L107 297L106 296z"/>
<path style="fill:#707070; stroke:none;" d="M107 296L108 297L107 296M206 296L207 297L206 296z"/>
<path style="fill:#a1a1a1; stroke:none;" d="M207 296L208 297L207 296M109 297L110 298L109 297z"/>
<path style="fill:#707070; stroke:none;" d="M110 297L111 298L110 297M203 297L204 298L203 297z"/>
<path style="fill:#a1a1a1; stroke:none;" d="M204 297L205 298L204 297M112 298L113 299L112 298z"/>
<path style="fill:#707070; stroke:none;" d="M113 298L114 299L113 298M200 298L201 299L200 298z"/>
<path style="fill:#a1a1a1; stroke:none;" d="M201 298L202 299L201 298M116 299L117 300L116 299z"/>
<path style="fill:#707070; stroke:none;" d="M117 299L118 300L117 299M196 299L197 300L196 299z"/>
<path style="fill:#a1a1a1; stroke:none;" d="M197 299L198 300L197 299M119 300L120 301L119 300z"/>
<path style="fill:#707070; stroke:none;" d="M120.667 300.333L121.333 300.667L120.667 300.333M192.667 300.333L193.333 300.667L192.667 300.333z"/>
<path style="fill:#a1a1a1; stroke:none;" d="M194 300L195 301L194 300M123.667 301.333L124.333 301.667L123.667 301.333z"/>
<path style="fill:#707070; stroke:none;" d="M125 301L126 302L125 301M188 301L189 302L188 301z"/>
<path style="fill:#a1a1a1; stroke:none;" d="M189.667 301.333L190.333 301.667L189.667 301.333M128.667 302.333L129.333 302.667L128.667 302.333z"/>
<path style="fill:#707070; stroke:none;" d="M130 302L131 303L130 302M183 302L184 303L183 302z"/>
<path style="fill:#a1a1a1; stroke:none;" d="M184.667 302.333L185.333 302.667L184.667 302.333M134.667 303.333L135.333 303.667L134.667 303.333z"/>
<path style="fill:#707070; stroke:none;" d="M136.667 303.333L137.333 303.667L136.667 303.333M176.667 303.333L177.333 303.667L176.667 303.333z"/>
<path style="fill:#a1a1a1; stroke:none;" d="M178.667 303.333L179.333 303.667L178.667 303.333M141 304L141 305L144 305L141 304z"/>
<path style="fill:#707070; stroke:none;" d="M144 304L144 305L149 305L144 304M165 304L165 305L170 305L165 304z"/>
<path style="fill:#a1a1a1; stroke:none;" d="M170 304L170 305L173 305L170 304z"/>
</svg>
