<?xml version="1.0" standalone="no"?>
<!DOCTYPE svg PUBLIC "-//W3C//DTD SVG 20010904//EN"
 "http://www.w3.org/TR/2001/REC-SVG-20010904/DTD/svg10.dtd">
<svg version="1.0" xmlns="http://www.w3.org/2000/svg"
 width="225.000000pt" height="225.000000pt" viewBox="0 0 225.000000 225.000000"
 preserveAspectRatio="xMidYMid meet">
<metadata>
Created by potrace 1.14, written by Peter Selinger 2001-2017
</metadata>
<g transform="translate(0.000000,225.000000) scale(0.100000,-0.100000)"
fill="#000000" stroke="none">
<path d="M0 2220 c0 -25 4 -30 25 -30 35 0 33 -33 -2 -47 l-28 -10 28 -8 c34
-9 36 -35 2 -35 l-25 0 0 -1045 0 -1045 1125 0 1125 0 0 1125 0 1125 -899 0
-900 0 -5 -57 c-4 -32 -11 -87 -16 -123 -6 -36 -12 -76 -14 -90 -2 -14 -4 5
-5 42 -1 81 -7 97 -38 109 -13 5 -22 13 -18 18 8 14 -15 25 -27 13 -11 -11
-55 6 -63 26 -7 19 6 43 29 52 13 5 -39 9 -136 9 l-158 1 0 -30z m150 -79 c0
-5 -6 -14 -14 -20 -12 -10 -13 -8 -9 8 5 21 23 30 23 12z m515 -267 c13 -49
37 -131 54 -183 16 -52 28 -98 25 -103 -3 -4 0 -8 7 -8 8 0 10 -11 6 -34 -3
-19 1 -70 10 -113 21 -105 20 -140 -2 -161 -16 -14 -17 -14 -7 -1 11 14 9 20
-11 35 -26 20 -62 109 -96 232 -11 41 -23 84 -26 95 -6 21 -5 20 16 -3 l22
-25 -7 64 c-3 35 -6 77 -6 92 0 16 -5 29 -11 29 -8 0 -10 -18 -7 -55 7 -79
-12 -54 -28 37 -12 67 -11 78 7 136 12 35 23 61 25 59 3 -2 16 -44 29 -93z
m255 -729 c-10 -13 -10 -19 5 -35 10 -11 21 -17 26 -15 4 3 10 1 14 -5 13 -21
-22 -9 -45 15 -19 20 -21 27 -10 40 7 8 15 15 17 15 3 0 0 -7 -7 -15z m24 -21
c3 -8 2 -12 -4 -9 -6 3 -10 10 -10 16 0 14 7 11 14 -7z m73 -241 c-2 -16 -4
-5 -4 22 0 28 2 40 4 28 2 -13 2 -35 0 -50z m-10 -230 c-2 -21 -4 -6 -4 32 0
39 2 55 4 38 2 -18 2 -50 0 -70z m-207 27 c0 -5 -2 -10 -4 -10 -3 0 -8 5 -11
10 -3 6 -1 10 4 10 6 0 11 -4 11 -10z m230 -115 c0 -8 -4 -15 -10 -15 -5 0 -7
7 -4 15 4 8 8 15 10 15 2 0 4 -7 4 -15z m20 -62 c16 -19 -5 -15 -31 5 -12 11
-24 29 -26 41 -3 23 3 18 57 -46z m117 -9 c-3 -3 -12 -4 -19 -1 -8 3 -5 6 6 6
11 1 17 -2 13 -5z"/>
<path d="M300 2180 c0 -5 5 -10 10 -10 6 0 10 5 10 10 0 6 -4 10 -10 10 -5 0
-10 -4 -10 -10z"/>
<path d="M422 2110 c0 -14 2 -19 5 -12 2 6 2 18 0 25 -3 6 -5 1 -5 -13z"/>
</g>
</svg>
